<mxfile host="app.diagrams.net" modified="2021-06-15T10:31:57.873Z" agent="5.0 (Windows)" etag="-9yprBu68_e35GHwrAAQ" version="14.7.8" type="github" pages="6">
  <diagram id="-wBcRLmWLGWXw0SbWawM" name="Page-1">
    <mxGraphModel dx="782" dy="420" grid="0" gridSize="10" guides="1" tooltips="1" connect="1" arrows="1" fold="1" page="1" pageScale="1" pageWidth="850" pageHeight="1100" math="0" shadow="0">
      <root>
        <mxCell id="0" />
        <mxCell id="1" parent="0" />
        <mxCell id="Hcr-YIiljTVfWTEueqw_-1" value="&lt;h1&gt;JPDC&lt;br&gt;&lt;/h1&gt;" style="whiteSpace=wrap;html=1;shadow=0;dashed=0;fontSize=10;align=left;fillColor=#FFFFFF;strokeColor=#FFFFFF;fontColor=#4D4D4D;" parent="1" vertex="1">
          <mxGeometry x="228" y="82" width="168.8" height="30" as="geometry" />
        </mxCell>
        <mxCell id="Hcr-YIiljTVfWTEueqw_-2" value="Menu" style="text;html=1;align=center;verticalAlign=middle;resizable=0;points=[];autosize=1;strokeColor=none;" parent="1" vertex="1">
          <mxGeometry x="225" y="110" width="50" height="20" as="geometry" />
        </mxCell>
        <mxCell id="Hcr-YIiljTVfWTEueqw_-3" value="Order Entry&lt;span style=&quot;white-space: pre&quot;&gt;	&lt;/span&gt;" style="text;html=1;align=center;verticalAlign=middle;resizable=0;points=[];autosize=1;strokeColor=none;fontStyle=0" parent="1" vertex="1">
          <mxGeometry x="140" y="160" width="100" height="20" as="geometry" />
        </mxCell>
        <mxCell id="Hcr-YIiljTVfWTEueqw_-4" value="&lt;span style=&quot;white-space: pre&quot;&gt;   &lt;/span&gt;Packing List&lt;span style=&quot;white-space: pre&quot;&gt;	&lt;/span&gt;" style="text;html=1;align=center;verticalAlign=middle;resizable=0;points=[];autosize=1;strokeColor=none;" parent="1" vertex="1">
          <mxGeometry x="130" y="180" width="100" height="20" as="geometry" />
        </mxCell>
        <mxCell id="Hcr-YIiljTVfWTEueqw_-5" value="&lt;span style=&quot;white-space: pre&quot;&gt;  &lt;/span&gt;Packing info Entry&lt;span style=&quot;white-space: pre&quot;&gt;	&lt;/span&gt;" style="text;html=1;align=center;verticalAlign=middle;resizable=0;points=[];autosize=1;strokeColor=none;" parent="1" vertex="1">
          <mxGeometry x="135" y="199" width="120" height="20" as="geometry" />
        </mxCell>
        <mxCell id="Hcr-YIiljTVfWTEueqw_-6" value="&lt;span style=&quot;white-space: pre&quot;&gt; &lt;/span&gt;User List" style="text;html=1;align=center;verticalAlign=middle;resizable=0;points=[];autosize=1;strokeColor=none;" parent="1" vertex="1">
          <mxGeometry x="136" y="218" width="70" height="20" as="geometry" />
        </mxCell>
      </root>
    </mxGraphModel>
  </diagram>
  <diagram name="Page-2" id="WX9gCuoQHe-sVlBQX5m3">
    <mxGraphModel dx="782" dy="420" grid="0" gridSize="10" guides="1" tooltips="1" connect="1" arrows="1" fold="1" page="1" pageScale="1" pageWidth="850" pageHeight="1100" math="0" shadow="0">
      <root>
        <mxCell id="WI2AlXCixzGlsHik23k0-0" />
        <mxCell id="WI2AlXCixzGlsHik23k0-1" parent="WI2AlXCixzGlsHik23k0-0" />
        <mxCell id="WI2AlXCixzGlsHik23k0-2" value="&lt;h1&gt;ORDER ENTRY&lt;br&gt;&lt;/h1&gt;" style="whiteSpace=wrap;html=1;shadow=0;dashed=0;fontSize=10;align=left;fillColor=#FFFFFF;strokeColor=#FFFFFF;fontColor=#4D4D4D;" parent="WI2AlXCixzGlsHik23k0-1" vertex="1">
          <mxGeometry x="290" y="50" width="168.8" height="30" as="geometry" />
        </mxCell>
        <mxCell id="WI2AlXCixzGlsHik23k0-4" value="Order Entry&lt;span style=&quot;white-space: pre&quot;&gt;	&lt;/span&gt;" style="text;html=1;align=center;verticalAlign=middle;resizable=0;points=[];autosize=1;strokeColor=none;fontStyle=1" parent="WI2AlXCixzGlsHik23k0-1" vertex="1">
          <mxGeometry x="100" y="120" width="100" height="20" as="geometry" />
        </mxCell>
        <mxCell id="WI2AlXCixzGlsHik23k0-5" value="&lt;span style=&quot;white-space: pre&quot;&gt;   &lt;/span&gt;Packing List&lt;span style=&quot;white-space: pre&quot;&gt;	&lt;/span&gt;" style="text;html=1;align=center;verticalAlign=middle;resizable=0;points=[];autosize=1;strokeColor=none;" parent="WI2AlXCixzGlsHik23k0-1" vertex="1">
          <mxGeometry x="90" y="140" width="100" height="20" as="geometry" />
        </mxCell>
        <mxCell id="WI2AlXCixzGlsHik23k0-6" value="&lt;span style=&quot;white-space: pre&quot;&gt;  &lt;/span&gt;Packing info Entry&lt;span style=&quot;white-space: pre&quot;&gt;	&lt;/span&gt;" style="text;html=1;align=center;verticalAlign=middle;resizable=0;points=[];autosize=1;strokeColor=none;" parent="WI2AlXCixzGlsHik23k0-1" vertex="1">
          <mxGeometry x="95" y="160" width="120" height="20" as="geometry" />
        </mxCell>
        <mxCell id="WI2AlXCixzGlsHik23k0-7" value="&lt;span style=&quot;white-space: pre&quot;&gt; &lt;/span&gt;User List" style="text;html=1;align=center;verticalAlign=middle;resizable=0;points=[];autosize=1;strokeColor=none;" parent="WI2AlXCixzGlsHik23k0-1" vertex="1">
          <mxGeometry x="95" y="180" width="70" height="20" as="geometry" />
        </mxCell>
        <mxCell id="WI2AlXCixzGlsHik23k0-8" value="&lt;span style=&quot;white-space: pre&quot;&gt;	&lt;/span&gt;&lt;span style=&quot;white-space: pre&quot;&gt;	&lt;/span&gt;&lt;span style=&quot;white-space: pre&quot;&gt;	&lt;/span&gt;&lt;span style=&quot;white-space: pre&quot;&gt;	&lt;/span&gt;&lt;span style=&quot;white-space: pre&quot;&gt;	&lt;/span&gt;&lt;span style=&quot;white-space: pre&quot;&gt;	&lt;/span&gt;&lt;span style=&quot;white-space: pre&quot;&gt;	&lt;/span&gt;Order Entry (AB Order/NFO)" style="text;html=1;align=center;verticalAlign=middle;resizable=0;points=[];autosize=1;strokeColor=none;fontColor=#000000;" parent="WI2AlXCixzGlsHik23k0-1" vertex="1">
          <mxGeometry x="85" y="120" width="350" height="20" as="geometry" />
        </mxCell>
        <mxCell id="WI2AlXCixzGlsHik23k0-9" value="&lt;span style=&quot;white-space: pre&quot;&gt;	&lt;/span&gt;&lt;span style=&quot;white-space: pre&quot;&gt;	&lt;/span&gt;&lt;span style=&quot;white-space: pre&quot;&gt;	&lt;/span&gt;&lt;span style=&quot;white-space: pre&quot;&gt;	&lt;/span&gt;&lt;span style=&quot;white-space: pre&quot;&gt;    &lt;/span&gt;Order Entry (DSA/Reutilization)" style="text;html=1;align=center;verticalAlign=middle;resizable=0;points=[];autosize=1;strokeColor=none;fontColor=#000000;" parent="WI2AlXCixzGlsHik23k0-1" vertex="1">
          <mxGeometry x="152" y="141" width="297" height="18" as="geometry" />
        </mxCell>
      </root>
    </mxGraphModel>
  </diagram>
  <diagram name="Page-3" id="X54QVpStuwEzuAZLdV_B">
    <mxGraphModel dx="782" dy="420" grid="0" gridSize="10" guides="1" tooltips="1" connect="1" arrows="1" fold="1" page="1" pageScale="1" pageWidth="850" pageHeight="1100" math="0" shadow="0">
      <root>
        <mxCell id="0" />
        <mxCell id="1" parent="0" />
        <mxCell id="6TfJL_lm46oyLuE2YcwJ-3" value="Export type: &lt;span style=&quot;white-space: pre&quot;&gt;	&lt;/span&gt;" style="text;html=1;align=center;verticalAlign=middle;resizable=0;points=[];autosize=1;strokeColor=none;" parent="1" vertex="1">
          <mxGeometry x="105" y="120" width="90" height="20" as="geometry" />
        </mxCell>
        <mxCell id="6TfJL_lm46oyLuE2YcwJ-4" value="&lt;span style=&quot;white-space: pre&quot;&gt;	&lt;/span&gt;&lt;span style=&quot;white-space: pre&quot;&gt;	&lt;/span&gt;Country code:" style="text;html=1;align=center;verticalAlign=middle;resizable=0;points=[];autosize=1;strokeColor=none;" parent="1" vertex="1">
          <mxGeometry x="50" y="150" width="140" height="20" as="geometry" />
        </mxCell>
        <mxCell id="6TfJL_lm46oyLuE2YcwJ-5" value="&lt;span style=&quot;white-space: pre&quot;&gt;    &lt;/span&gt;Ship to Code:" style="text;html=1;align=center;verticalAlign=middle;resizable=0;points=[];autosize=1;strokeColor=none;" parent="1" vertex="1">
          <mxGeometry x="90" y="180" width="100" height="20" as="geometry" />
        </mxCell>
        <mxCell id="6TfJL_lm46oyLuE2YcwJ-6" value="&amp;nbsp; Order No (O/N):" style="text;html=1;align=center;verticalAlign=middle;resizable=0;points=[];autosize=1;strokeColor=none;" parent="1" vertex="1">
          <mxGeometry x="95" y="210" width="110" height="20" as="geometry" />
        </mxCell>
        <mxCell id="6TfJL_lm46oyLuE2YcwJ-9" value="Save" style="rounded=1;fillColor=#0057D8;align=center;strokeColor=none;html=1;fontColor=#ffffff;fontSize=12" parent="1" vertex="1">
          <mxGeometry x="195" y="260" width="86" height="26" as="geometry" />
        </mxCell>
        <mxCell id="6TfJL_lm46oyLuE2YcwJ-11" value="Clear" style="rounded=1;fillColor=#0057D8;align=center;strokeColor=none;html=1;fontColor=#ffffff;fontSize=12" parent="1" vertex="1">
          <mxGeometry x="300" y="260" width="86" height="26" as="geometry" />
        </mxCell>
        <mxCell id="6TfJL_lm46oyLuE2YcwJ-14" value="A" style="rounded=0;whiteSpace=wrap;html=1;" parent="1" vertex="1">
          <mxGeometry x="220" y="121" width="120" height="20" as="geometry" />
        </mxCell>
        <mxCell id="6TfJL_lm46oyLuE2YcwJ-15" value="" style="rounded=0;whiteSpace=wrap;html=1;" parent="1" vertex="1">
          <mxGeometry x="220" y="150" width="120" height="20" as="geometry" />
        </mxCell>
        <mxCell id="6TfJL_lm46oyLuE2YcwJ-16" value="" style="rounded=0;whiteSpace=wrap;html=1;" parent="1" vertex="1">
          <mxGeometry x="220" y="180" width="120" height="20" as="geometry" />
        </mxCell>
        <mxCell id="6TfJL_lm46oyLuE2YcwJ-17" value="" style="rounded=0;whiteSpace=wrap;html=1;" parent="1" vertex="1">
          <mxGeometry x="220" y="210" width="120" height="20" as="geometry" />
        </mxCell>
        <mxCell id="6TfJL_lm46oyLuE2YcwJ-27" value="&lt;h1&gt;ORDER ENTRY (AB Order /NFO)&lt;br&gt;&lt;/h1&gt;" style="whiteSpace=wrap;html=1;shadow=0;dashed=0;fontSize=10;align=left;fillColor=#FFFFFF;strokeColor=#FFFFFF;fontColor=#4D4D4D;fontStyle=1" parent="1" vertex="1">
          <mxGeometry x="90" y="60" width="410" height="16.88" as="geometry" />
        </mxCell>
        <mxCell id="QWrm-TteIS90DqFswaQ0-1" value="&lt;!--[if IE]&gt;&lt;meta http-equiv=&quot;X-UA-Compatible&quot; content=&quot;IE=5&quot; &gt;&lt;![endif]--&gt;&#xa;&lt;!DOCTYPE html&gt;&#xa;&lt;html&gt;&#xa;&lt;head&gt;&#xa;    &lt;title&gt;Flowchart Maker &amp;amp; Online Diagram Software&lt;/title&gt;&#xa;    &lt;meta charset=&quot;utf-8&quot;/&gt;&#xa;    &lt;meta http-equiv=&quot;Content-Type&quot; content=&quot;text/html; charset=UTF-8&quot;&gt;&#xa;    &lt;meta name=&quot;Description&quot; content=&quot;diagrams.net is free online diagram software for making flowcharts, process diagrams, org charts, UML, ER and network diagrams&quot;&gt;&#xa;    &lt;meta name=&quot;Keywords&quot; content=&quot;diagram, online, flow chart, flowchart maker, uml, erd&quot;&gt;&#xa;    &lt;meta itemprop=&quot;name&quot; content=&quot;diagrams.net - free flowchart maker and diagrams online&quot;&gt;&#xa;	&lt;meta itemprop=&quot;description&quot; content=&quot;diagrams.net is a free online diagramming application  and flowchart maker . You can use it to create UML, entity relationship,&#xa;		org charts, BPMN and BPM, database schema and networks. Also possible are telecommunication network, workflow, flowcharts, maps overlays and GIS, electronic &#xa;		circuit and social network diagrams.&quot;&gt;&#xa;	&lt;meta itemprop=&quot;image&quot; content=&quot;https://lh4.googleusercontent.com/-cLKEldMbT_E/Tx8qXDuw6eI/AAAAAAAAAAs/Ke0pnlk8Gpg/w500-h344-k/BPMN%2Bdiagram%2Brc2f.png&quot;&gt;&#xa;    &lt;meta name=&quot;viewport&quot; content=&quot;width=device-width, initial-scale=1.0, maximum-scale=1.0, user-scalable=no&quot;&gt;&#xa;	&lt;meta name=&quot;msapplication-config&quot; content=&quot;images/browserconfig.xml&quot;&gt;&#xa;    &lt;meta name=&quot;mobile-web-app-capable&quot; content=&quot;yes&quot;&gt;&#xa;	&lt;meta name=&quot;theme-color&quot; content=&quot;#d89000&quot;&gt;&#xa;	&lt;script type=&quot;text/javascript&quot;&gt;&#xa;		/**&#xa;		 * URL Parameters and protocol description are here:&#xa;		 *&#xa;		 * https://desk.draw.io/support/solutions/articles/16000042546-what-url-parameters-are-supported&#xa;		 *&#xa;		 * Parameters for developers:&#xa;		 *&#xa;		 * - dev=1: For developers only&#xa;		 * - test=1: For developers only&#xa;		 * - export=URL for export: For developers only&#xa;		 * - ignoremime=1: For developers only (see DriveClient.js). Use Cmd-S to override mime.&#xa;		 * - createindex=1: For developers only (see etc/build/README)&#xa;		 * - filesupport=0: For developers only (see Editor.js in core)&#xa;		 * - savesidebar=1: For developers only (see Sidebar.js)&#xa;		 * - pages=1: For developers only (see Pages.js)&#xa;		 * - lic=email: For developers only (see LicenseServlet.java)&#xa;		 * --&#xa;		 * - networkshapes=1: For testing network shapes (temporary)&#xa;		 */&#xa;		var urlParams = (function()&#xa;		{&#xa;			var result = new Object();&#xa;			var params = window.location.search.slice(1).split(&#39;&amp;&#39;);&#xa;			&#xa;			for (var i = 0; i &lt; params.length; i++)&#xa;			{&#xa;				idx = params[i].indexOf(&#39;=&#39;);&#xa;				&#xa;				if (idx &gt; 0)&#xa;				{&#xa;					result[params[i].substring(0, idx)] = params[i].substring(idx + 1);&#xa;				}&#xa;			}&#xa;			&#xa;			return result;&#xa;		})();&#xa;		&#xa;		// Forces CDN caches by passing URL parameters via URL hash&#xa;		if (window.location.hash != null &amp;&amp; window.location.hash.substring(0, 2) == &#39;#P&#39;)&#xa;		{&#xa;			try&#xa;			{&#xa;				urlParams = JSON.parse(decodeURIComponent(window.location.hash.substring(2)));&#xa;				&#xa;				if (urlParams.hash != null)&#xa;				{&#xa;					window.location.hash = urlParams.hash;&#xa;				}&#xa;			}&#xa;			catch (e)&#xa;			{&#xa;				// ignore&#xa;			}&#xa;		}&#xa;		&#xa;		// Global variable for desktop&#xa;		var mxIsElectron = window &amp;&amp; window.process &amp;&amp; window.process.type;&#xa;&#xa;		// Redirects page if required&#xa;		if (urlParams[&#39;dev&#39;] != &#39;1&#39;)&#xa;		{&#xa;			(function()&#xa;			{&#xa;				var proto = window.location.protocol;&#xa;				&#xa;				if (!mxIsElectron)&#xa;				{&#xa;					var host = window.location.host;&#xa;		&#xa;					// Redirects apex, drive and rt to www&#xa;					if (host === &#39;draw.io&#39; || host === &#39;rt.draw.io&#39; || host === &#39;drive.draw.io&#39;)&#xa;					{&#xa;						host = &#39;www.draw.io&#39;;&#xa;					}&#xa;					&#xa;					var href = proto + &#39;//&#39; + host + window.location.href.substring(&#xa;							window.location.protocol.length +&#xa;							window.location.host.length + 2);&#xa;		&#xa;					// Redirects if href changes&#xa;					if (href != window.location.href)&#xa;					{&#xa;						window.location.href = href;&#xa;					}&#xa;				}&#xa;			})();&#xa;		}&#xa;		&#xa;		/**&#xa;		 * Adds meta tag to the page.&#xa;		 */&#xa;		function mxmeta(name, content, httpEquiv)&#xa;		{&#xa;			try&#xa;			{&#xa;				var s = document.createElement(&#39;meta&#39;);&#xa;				&#xa;				if (name != null) &#xa;				{&#xa;					s.setAttribute(&#39;name&#39;, name);&#xa;				}&#xa;&#xa;				s.setAttribute(&#39;content&#39;, content);&#xa;				&#xa;				if (httpEquiv != null) &#xa;				{&#xa;					s.setAttribute(&#39;http-equiv&#39;, httpEquiv);&#xa;				}&#xa;&#xa;			  	var t = document.getElementsByTagName(&#39;meta&#39;)[0];&#xa;			  	t.parentNode.insertBefore(s, t);&#xa;			}&#xa;			catch (e)&#xa;			{&#xa;				// ignore&#xa;			}&#xa;		};&#xa;		&#xa;		/**&#xa;		 * Synchronously adds scripts to the page.&#xa;		 */&#xa;		function mxscript(src, onLoad, id, dataAppKey, noWrite)&#xa;		{&#xa;			var defer = onLoad == null &amp;&amp; !noWrite;&#xa;			&#xa;			if ((urlParams[&#39;dev&#39;] != &#39;1&#39; &amp;&amp; typeof document.createElement(&#39;canvas&#39;).getContext === &quot;function&quot;) ||&#xa;				onLoad != null || noWrite)&#xa;			{&#xa;				var s = document.createElement(&#39;script&#39;);&#xa;				s.setAttribute(&#39;type&#39;, &#39;text/javascript&#39;);&#xa;				s.setAttribute(&#39;defer&#39;, &#39;true&#39;);&#xa;				s.setAttribute(&#39;src&#39;, src);&#xa;&#xa;				if (id != null)&#xa;				{&#xa;					s.setAttribute(&#39;id&#39;, id);&#xa;				}&#xa;				&#xa;				if (dataAppKey != null)&#xa;				{&#xa;					s.setAttribute(&#39;data-app-key&#39;, dataAppKey);&#xa;				}&#xa;				&#xa;				if (onLoad != null)&#xa;				{&#xa;					var r = false;&#xa;				&#xa;					s.onload = s.onreadystatechange = function()&#xa;					{&#xa;						if (!r &amp;&amp; (!this.readyState || this.readyState == &#39;complete&#39;))&#xa;						{&#xa;				      		r = true;&#xa;				      		onLoad();&#xa;						}&#xa;				  	};&#xa;				}&#xa;			  	&#xa;			  	var t = document.getElementsByTagName(&#39;script&#39;)[0];&#xa;			  	&#xa;			  	if (t != null)&#xa;			  	{&#xa;			  		t.parentNode.insertBefore(s, t);&#xa;			  	}&#xa;			}&#xa;			else&#xa;			{&#xa;				document.write(&#39;&lt;script src=&quot;&#39; + src + &#39;&quot;&#39; + ((id != null) ? &#39; id=&quot;&#39; + id +&#39;&quot; &#39; : &#39;&#39;) +&#xa;					((dataAppKey != null) ? &#39; data-app-key=&quot;&#39; + dataAppKey +&#39;&quot; &#39; : &#39;&#39;) + &#39;&gt;&lt;/scr&#39; + &#39;ipt&gt;&#39;);&#xa;			}&#xa;		};&#xa;&#xa;		/**&#xa;		 * Asynchronously adds scripts to the page.&#xa;		 */&#xa;		function mxinclude(src)&#xa;		{&#xa;			var g = document.createElement(&#39;script&#39;);&#xa;			g.type = &#39;text/javascript&#39;;&#xa;			g.async = true;&#xa;			g.src = src;&#xa;			&#xa;		    var s = document.getElementsByTagName(&#39;script&#39;)[0];&#xa;		    s.parentNode.insertBefore(g, s);&#xa;		};&#xa;		&#xa;		/**&#xa;		 * Adds meta tags with application name (depends on offline URL parameter)&#xa;		 */&#xa;		(function()&#xa;		{&#xa;			var name = &#39;diagrams.net&#39;;&#xa;			mxmeta(&#39;apple-mobile-web-app-title&#39;, name);&#xa;			mxmeta(&#39;application-name&#39;, name);&#xa;&#xa;			if (mxIsElectron)&#xa;			{&#xa;				mxmeta(null, &#39;default-src \&#39;self\&#39; \&#39;unsafe-inline\&#39;; connect-src \&#39;self\&#39; https://*.draw.io https://fonts.googleapis.com https://fonts.gstatic.com; img-src * data:; media-src *; font-src *; style-src-elem \&#39;self\&#39; \&#39;unsafe-inline\&#39; https://fonts.googleapis.com&#39;, &#39;Content-Security-Policy&#39;);&#xa;			}&#xa;		})();&#xa;		&#xa;		// Checks for local storage&#xa;		var isLocalStorage = false;&#xa;		&#xa;		try&#xa;		{&#xa;			isLocalStorage = urlParams[&#39;local&#39;] != &#39;1&#39; &amp;&amp; typeof(localStorage) != &#39;undefined&#39;;&#xa;		}&#xa;		catch (e)&#xa;		{&#xa;			// ignored&#xa;		}&#xa;&#xa;		var mxScriptsLoaded = false, mxWinLoaded = false;&#xa;		&#xa;		function checkAllLoaded()&#xa;		{&#xa;			if (mxScriptsLoaded &amp;&amp; mxWinLoaded)&#xa;			{&#xa;				App.main();				&#xa;			}&#xa;		};&#xa;		&#xa;		var t0 = new Date();&#xa;&#xa;		// Changes paths for local development environment&#xa;		if (urlParams[&#39;dev&#39;] == &#39;1&#39;)&#xa;		{&#xa;			// Used to request grapheditor/mxgraph sources in dev mode&#xa;			var mxDevUrl = document.location.protocol + &#39;//devhost.jgraph.com/drawio/src/main&#39;;&#xa;			&#xa;			// Used to request draw.io sources in dev mode&#xa;			var drawDevUrl = document.location.protocol + &#39;//devhost.jgraph.com/drawio/src/main/webapp/&#39;;&#xa;			var geBasePath = drawDevUrl + &#39;/js/grapheditor&#39;;&#xa;			var mxBasePath = mxDevUrl + &#39;/mxgraph&#39;;&#xa;			&#xa;			if (document.location.protocol == &#39;file:&#39;)&#xa;			{&#xa;				geBasePath = &#39;./js/grapheditor&#39;;&#xa;				mxBasePath = &#39;./mxgraph&#39;;&#xa;				drawDevUrl = &#39;./&#39;;&#xa;				&#xa;				// Forces includes for dev environment in node.js&#xa;				mxForceIncludes = true;&#xa;			}&#xa;&#xa;			mxscript(drawDevUrl + &#39;js/PreConfig.js&#39;);&#xa;			mxscript(drawDevUrl + &#39;js/diagramly/Init.js&#39;);&#xa;			mxscript(geBasePath + &#39;/Init.js&#39;);&#xa;			mxscript(mxBasePath + &#39;/mxClient.js&#39;);&#xa;			&#xa;			// Adds all JS code that depends on mxClient. This indirection via Devel.js is&#xa;			// required in some browsers to make sure mxClient.js (and the files that it&#xa;			// loads asynchronously) are available when the code loaded in Devel.js runs.&#xa;			mxscript(drawDevUrl + &#39;js/diagramly/Devel.js&#39;);&#xa;			&#xa;			// Electron&#xa;			if (mxIsElectron)&#xa;			{&#xa;				mxscript(&#39;js/diagramly/DesktopLibrary.js&#39;);&#xa;				mxscript(&#39;js/diagramly/ElectronApp.js&#39;);&#xa;			}&#xa;			&#xa;			mxscript(drawDevUrl + &#39;js/PostConfig.js&#39;);&#xa;		}&#xa;		else&#xa;		{&#xa;			(function()&#xa;			{&#xa;				var hostName = window.location.hostname;&#xa;				&#xa;				// Supported domains are *.draw.io and the packaged version in Quip&#xa;				var supportedDomain = (hostName.substring(hostName.length - 8, hostName.length) === &#39;.draw.io&#39;) ||&#xa;					(hostName.substring(hostName.length - 13, hostName.length) === &#39;.diagrams.net&#39;);&#xa;					(hostName.substring(hostName.length - 17, hostName.length) === &#39;.quipelements.com&#39;);&#xa;				&#xa;				function loadAppJS()&#xa;				{&#xa;					mxscript(&#39;js/app.min.js&#39;, function()&#xa;					{&#xa;						mxScriptsLoaded = true;&#xa;						checkAllLoaded();&#xa;						&#xa;						if (!supportedDomain)&#xa;						{&#xa;							mxscript(&#39;js/PostConfig.js&#39;);&#xa;						}&#xa;						&#xa;						// Electron&#xa;						if (mxIsElectron)&#xa;						{&#xa;							mxscript(&#39;js/diagramly/DesktopLibrary.js&#39;, function()&#xa;							{&#xa;								mxscript(&#39;js/diagramly/ElectronApp.js&#39;, function()&#xa;								{&#xa;									mxscript(&#39;js/extensions.min.js&#39;, function()&#xa;									{&#xa;										mxscript(&#39;js/stencils.min.js&#39;, function()&#xa;										{&#xa;											mxscript(&#39;js/shapes-14-6-5.min.js&#39;, function()&#xa;											{&#xa;												mxscript(&#39;js/PostConfig.js&#39;);&#xa;											});&#xa;										});&#xa;									});&#xa;								});&#xa;							});&#xa;						}&#xa;					});&#xa;				};&#xa;				&#xa;				if (!supportedDomain || mxIsElectron)&#xa;				{&#xa;					mxscript(&#39;js/PreConfig.js&#39;, loadAppJS);&#xa;				}&#xa;				else&#xa;				{&#xa;					loadAppJS();&#xa;				}&#xa;			})();&#xa;		}&#xa;&#xa;		// Adds basic error handling&#xa;		window.onerror = function()&#xa;		{&#xa;			var status = document.getElementById(&#39;geStatus&#39;);&#xa;			&#xa;			if (status != null)&#xa;			{&#xa;				status.innerHTML = &#39;Page could not be loaded. Please try refreshing.&#39;;&#xa;			}&#xa;		};&#xa;	&lt;/script&gt;&#xa;    &lt;link rel=&quot;chrome-webstore-item&quot; href=&quot;https://chrome.google.com/webstore/detail/plgmlhohecdddhbmmkncjdmlhcmaachm&quot;&gt;&#xa;	&lt;link rel=&quot;apple-touch-icon&quot; sizes=&quot;180x180&quot; href=&quot;images/apple-touch-icon.png&quot;&gt;&#xa;	&lt;link rel=&quot;icon&quot; type=&quot;image/png&quot; sizes=&quot;32x32&quot; href=&quot;images/favicon-32x32.png&quot;&gt;&#xa;	&lt;link rel=&quot;icon&quot; type=&quot;image/png&quot; sizes=&quot;16x16&quot; href=&quot;images/favicon-16x16.png&quot;&gt;&#xa;	&lt;link rel=&quot;mask-icon&quot; href=&quot;images/safari-pinned-tab.svg&quot; color=&quot;#d89000&quot;&gt;&#xa;	&lt;link rel=&quot;stylesheet&quot; type=&quot;text/css&quot; href=&quot;js/croppie/croppie.min.css&quot;&gt;&#xa;    &lt;link rel=&quot;stylesheet&quot; type=&quot;text/css&quot; href=&quot;styles/grapheditor.css&quot;&gt;&#xa;    &lt;link rel=&quot;preconnect&quot; href=&quot;https://storage.googleapis.com&quot;&gt;&#xa;    &lt;link rel=&quot;canonical&quot; href=&quot;https://app.diagrams.net&quot;&gt;&#xa;	&lt;link rel=&quot;manifest&quot; href=&quot;images/manifest.json&quot;&gt;&#xa;	&lt;link rel=&quot;shortcut icon&quot; href=&quot;favicon.ico&quot;&gt;&#xa;	&lt;style type=&quot;text/css&quot;&gt;&#xa;		body { overflow:hidden; }&#xa;		div.picker { z-index: 10007; }&#xa;		.geSidebarContainer .geTitle input {&#xa;			font-size:8pt;&#xa;			color:#606060;&#xa;		}&#xa;		.geBlock {&#xa;			z-index:-3;&#xa;			margin:100px;&#xa;			margin-top:40px;&#xa;			margin-bottom:30px;&#xa;			padding:20px;&#xa;		}&#xa;		.geBlock h1, .geBlock h2 {&#xa;			margin-top:0px;&#xa;			padding-top:0px;&#xa;		}&#xa;		.geEditor ::-webkit-scrollbar {&#xa;		    width:14px;&#xa;		    height:14px;&#xa;		}&#xa;		.geEditor ::-webkit-scrollbar-track {&#xa;			background-clip:padding-box;&#xa;			border:solid transparent;&#xa;			border-width:1px;&#xa;		}&#xa;		.geEditor ::-webkit-scrollbar-corner {&#xa;			background-color:transparent;&#xa;		}&#xa;		.geEditor ::-webkit-scrollbar-thumb {&#xa;			background-color:rgba(0,0,0,.1);&#xa;			background-clip:padding-box;&#xa;			border:solid transparent;&#xa;			border-radius:10px;&#xa;		}&#xa;		.geEditor ::-webkit-scrollbar-thumb:hover{&#xa;			background-color:rgba(0,0,0,.4);&#xa;		}&#xa;		.geTemplate {&#xa;			border:1px solid transparent;&#xa;			display:inline-block;&#xa;			_display:inline;&#xa;			vertical-align:top;&#xa;			border-radius:3px;&#xa;			overflow:hidden;&#xa;			font-size:14pt;&#xa;			cursor:pointer;&#xa;			margin:5px;&#xa;		}&#xa;	&lt;/style&gt;&#xa;	&lt;!-- Workaround for binary XHR in IE 9/10, see App.loadUrl --&gt;&#xa;	&lt;!--[if (IE 9)|(IE 10)]&gt;&lt;!--&gt;&#xa;		&lt;script type=&quot;text/vbscript&quot;&gt;&#xa;			Function mxUtilsBinaryToArray(Binary)&#xa;				Dim i&#xa;				ReDim byteArray(LenB(Binary))&#xa;				For i = 1 To LenB(Binary)&#xa;					byteArray(i-1) = AscB(MidB(Binary, i, 1))&#xa;				Next&#xa;				mxUtilsBinaryToArray = byteArray&#xa;			End Function&#xa;		&lt;/script&gt;&#xa;	&lt;!--&lt;![endif]--&gt;&#xa;&lt;/head&gt;&#xa;&lt;body class=&quot;geEditor&quot;&gt;&#xa;&lt;div id=&quot;geInfo&quot;&gt;&#xa;	&lt;div class=&quot;geBlock&quot; style=&quot;text-align:center;min-width:50%;&quot;&gt;&#xa;		&lt;h1&gt;Flowchart Maker and Online Diagram Software&lt;/h1&gt;&#xa;		&lt;p&gt;&#xa;			diagrams.net (formerly draw.io) is free online diagram software. You can use it as a flowchart maker, network diagram software, to create UML online, as an ER diagram tool, &#xa;			to design database schema, to build BPMN online, as a circuit diagram maker, and more. draw.io can import .vsdx, Gliffy&amp;trade; and Lucidchart&amp;trade; files .&#xa;		&lt;/p&gt;&#xa;		&lt;h2 id=&quot;geStatus&quot;&gt;Loading...&lt;/h2&gt;&#xa;		&lt;p&gt;&#xa;			Please ensure JavaScript is enabled.&#xa;		&lt;/p&gt;&#xa;	&lt;/div&gt;&#xa;&lt;/div&gt;&#xa;&lt;script type=&quot;text/javascript&quot;&gt;&#xa;/**&#xa; * Main&#xa; */&#xa;if (navigator.userAgent != null &amp;&amp; navigator.userAgent.toLowerCase().&#xa;	indexOf(&#39; electron/&#39;) &gt;= 0 &amp;&amp; typeof process !== &#39;undefined&#39; &amp;&amp; process.versions.electron &lt; 5)&#xa;{&#xa;	// Redirects old Electron app to latest version&#xa;	var div = document.getElementById(&#39;geInfo&#39;);&#xa;	&#xa;	if (div != null)&#xa;	{&#xa;		div.innerHTML = &#39;&lt;center&gt;&lt;h2&gt;You are using an out of date version of this app.&lt;br&gt;Please download the latest version &#39; +&#xa;			&#39;&lt;a href=&quot;https://github.com/jgraph/drawio-desktop/releases/latest&quot; target=&quot;_blank&quot;&gt;here&lt;/a&gt;.&lt;/h2&gt;&lt;/center&gt;&#39;;&#xa;	}&#xa;}&#xa;else&#xa;{&#xa;	if (urlParams[&#39;dev&#39;] != &#39;1&#39; &amp;&amp; typeof document.createElement(&#39;canvas&#39;).getContext === &quot;function&quot;)&#xa;	{&#xa;		window.addEventListener(&#39;load&#39;, function()&#xa;		{&#xa;			mxWinLoaded = true;&#xa;			checkAllLoaded();&#xa;		});&#xa;	}&#xa;	else&#xa;	{&#xa;		App.main();&#xa;	}&#xa;}&#xa;&lt;/script&gt;&#xa;&lt;/body&gt;&#xa;&lt;/html&gt;" style="text;whiteSpace=wrap;html=1;" parent="1" vertex="1">
          <mxGeometry x="90" y="330" width="550" height="1000" as="geometry" />
        </mxCell>
        <UserObject label="PackingList" link="https://www.draw.io" id="M8y3U3vpTnhOcSgfnaWG-1">
          <mxCell style="text;html=1;strokeColor=none;fillColor=none;whiteSpace=wrap;align=center;verticalAlign=middle;fontColor=#0000EE;fontStyle=4;" vertex="1" parent="1">
            <mxGeometry x="183" y="65.12" width="60" height="48.88" as="geometry" />
          </mxCell>
        </UserObject>
        <UserObject label="Packing Info" link="https://www.draw.io" id="d6zM-C98vXj4MJ0KlWij-1">
          <mxCell style="text;html=1;strokeColor=none;fillColor=none;whiteSpace=wrap;align=center;verticalAlign=middle;fontColor=#0000EE;fontStyle=4;" vertex="1" parent="1">
            <mxGeometry x="257" y="65.56" width="72" height="48.88" as="geometry" />
          </mxCell>
        </UserObject>
        <UserObject label="Order Entry" link="https://www.draw.io" id="9CIYIzkcrT74UDxrv-3X-1">
          <mxCell style="text;html=1;strokeColor=none;fillColor=none;whiteSpace=wrap;align=center;verticalAlign=middle;fontColor=#0000EE;fontStyle=4;" vertex="1" parent="1">
            <mxGeometry x="87" y="65.56" width="82" height="48.88" as="geometry" />
          </mxCell>
        </UserObject>
      </root>
    </mxGraphModel>
  </diagram>
  <diagram name="Page-4" id="W0dYHeCF2Nkg2ItnqJzb">
    <mxGraphModel dx="782" dy="420" grid="0" gridSize="10" guides="1" tooltips="1" connect="1" arrows="1" fold="1" page="1" pageScale="1" pageWidth="850" pageHeight="1100" math="0" shadow="0">
      <root>
        <mxCell id="cYawIubzxCpS3YJot5zc-0" />
        <mxCell id="cYawIubzxCpS3YJot5zc-1" parent="cYawIubzxCpS3YJot5zc-0" />
        <mxCell id="0WF7KHpB88fQVX5TjryC-0" value="" style="shape=table;startSize=0;container=1;collapsible=0;childLayout=tableLayout;" parent="cYawIubzxCpS3YJot5zc-1" vertex="1">
          <mxGeometry x="200" y="82" width="417" height="47" as="geometry" />
        </mxCell>
        <mxCell id="0WF7KHpB88fQVX5TjryC-1" value="" style="shape=partialRectangle;collapsible=0;dropTarget=0;pointerEvents=0;fillColor=none;top=0;left=0;bottom=0;right=0;points=[[0,0.5],[1,0.5]];portConstraint=eastwest;" parent="0WF7KHpB88fQVX5TjryC-0" vertex="1">
          <mxGeometry width="417" height="23" as="geometry" />
        </mxCell>
        <mxCell id="0WF7KHpB88fQVX5TjryC-2" value="Order type" style="shape=partialRectangle;html=1;whiteSpace=wrap;connectable=0;overflow=hidden;fillColor=none;top=0;left=0;bottom=0;right=0;" parent="0WF7KHpB88fQVX5TjryC-1" vertex="1">
          <mxGeometry width="83" height="23" as="geometry" />
        </mxCell>
        <mxCell id="0WF7KHpB88fQVX5TjryC-3" value="Country code" style="shape=partialRectangle;html=1;whiteSpace=wrap;connectable=0;overflow=hidden;fillColor=none;top=0;left=0;bottom=0;right=0;" parent="0WF7KHpB88fQVX5TjryC-1" vertex="1">
          <mxGeometry x="83" width="84" height="23" as="geometry" />
        </mxCell>
        <mxCell id="0WF7KHpB88fQVX5TjryC-4" value="Country&lt;span style=&quot;white-space: pre&quot;&gt;	&lt;/span&gt;" style="shape=partialRectangle;html=1;whiteSpace=wrap;connectable=0;overflow=hidden;fillColor=none;top=0;left=0;bottom=0;right=0;" parent="0WF7KHpB88fQVX5TjryC-1" vertex="1">
          <mxGeometry x="167" width="83" height="23" as="geometry" />
        </mxCell>
        <mxCell id="0WF7KHpB88fQVX5TjryC-5" value="Ship to Loc" style="shape=partialRectangle;html=1;whiteSpace=wrap;connectable=0;overflow=hidden;fillColor=none;top=0;left=0;bottom=0;right=0;" parent="0WF7KHpB88fQVX5TjryC-1" vertex="1">
          <mxGeometry x="250" width="83" height="23" as="geometry" />
        </mxCell>
        <mxCell id="0WF7KHpB88fQVX5TjryC-6" value="Order No&lt;span style=&quot;white-space: pre&quot;&gt;	&lt;/span&gt;" style="shape=partialRectangle;html=1;whiteSpace=wrap;connectable=0;overflow=hidden;fillColor=none;top=0;left=0;bottom=0;right=0;" parent="0WF7KHpB88fQVX5TjryC-1" vertex="1">
          <mxGeometry x="333" width="84" height="23" as="geometry" />
        </mxCell>
        <mxCell id="0WF7KHpB88fQVX5TjryC-8" value="" style="shape=partialRectangle;collapsible=0;dropTarget=0;pointerEvents=0;fillColor=none;top=0;left=0;bottom=0;right=0;points=[[0,0.5],[1,0.5]];portConstraint=eastwest;" parent="0WF7KHpB88fQVX5TjryC-0" vertex="1">
          <mxGeometry y="23" width="417" height="24" as="geometry" />
        </mxCell>
        <mxCell id="0WF7KHpB88fQVX5TjryC-9" value="" style="shape=partialRectangle;html=1;whiteSpace=wrap;connectable=0;overflow=hidden;fillColor=#f5f5f5;top=0;left=0;bottom=0;right=0;strokeColor=#666666;fontColor=#333333;" parent="0WF7KHpB88fQVX5TjryC-8" vertex="1">
          <mxGeometry width="83" height="24" as="geometry" />
        </mxCell>
        <mxCell id="0WF7KHpB88fQVX5TjryC-10" value="" style="shape=partialRectangle;html=1;whiteSpace=wrap;connectable=0;overflow=hidden;fillColor=#f5f5f5;top=0;left=0;bottom=0;right=0;strokeColor=#666666;fontColor=#333333;" parent="0WF7KHpB88fQVX5TjryC-8" vertex="1">
          <mxGeometry x="83" width="84" height="24" as="geometry" />
        </mxCell>
        <mxCell id="0WF7KHpB88fQVX5TjryC-11" value="" style="shape=partialRectangle;html=1;whiteSpace=wrap;connectable=0;overflow=hidden;fillColor=#f5f5f5;top=0;left=0;bottom=0;right=0;strokeColor=#666666;fontColor=#333333;" parent="0WF7KHpB88fQVX5TjryC-8" vertex="1">
          <mxGeometry x="167" width="83" height="24" as="geometry" />
        </mxCell>
        <mxCell id="0WF7KHpB88fQVX5TjryC-12" value="" style="shape=partialRectangle;html=1;whiteSpace=wrap;connectable=0;overflow=hidden;fillColor=#f5f5f5;top=0;left=0;bottom=0;right=0;strokeColor=#666666;fontColor=#333333;" parent="0WF7KHpB88fQVX5TjryC-8" vertex="1">
          <mxGeometry x="250" width="83" height="24" as="geometry" />
        </mxCell>
        <mxCell id="0WF7KHpB88fQVX5TjryC-13" value="" style="shape=partialRectangle;html=1;whiteSpace=wrap;connectable=0;overflow=hidden;fillColor=#f5f5f5;top=0;left=0;bottom=0;right=0;strokeColor=#666666;fontColor=#333333;" parent="0WF7KHpB88fQVX5TjryC-8" vertex="1">
          <mxGeometry x="333" width="84" height="24" as="geometry" />
        </mxCell>
        <mxCell id="0WF7KHpB88fQVX5TjryC-30" value="" style="shape=table;startSize=0;container=1;collapsible=0;childLayout=tableLayout;" parent="cYawIubzxCpS3YJot5zc-1" vertex="1">
          <mxGeometry x="200" y="160" width="420" height="80" as="geometry" />
        </mxCell>
        <mxCell id="0WF7KHpB88fQVX5TjryC-31" value="" style="shape=partialRectangle;collapsible=0;dropTarget=0;pointerEvents=0;fillColor=none;top=0;left=0;bottom=0;right=0;points=[[0,0.5],[1,0.5]];portConstraint=eastwest;" parent="0WF7KHpB88fQVX5TjryC-30" vertex="1">
          <mxGeometry width="420" height="27" as="geometry" />
        </mxCell>
        <mxCell id="0WF7KHpB88fQVX5TjryC-32" value="Part no" style="shape=partialRectangle;html=1;whiteSpace=wrap;connectable=0;overflow=hidden;fillColor=none;top=0;left=0;bottom=0;right=0;" parent="0WF7KHpB88fQVX5TjryC-31" vertex="1">
          <mxGeometry width="84" height="27" as="geometry" />
        </mxCell>
        <mxCell id="0WF7KHpB88fQVX5TjryC-33" value="Part name&lt;span style=&quot;white-space: pre&quot;&gt;	&lt;/span&gt;" style="shape=partialRectangle;html=1;whiteSpace=wrap;connectable=0;overflow=hidden;fillColor=none;top=0;left=0;bottom=0;right=0;" parent="0WF7KHpB88fQVX5TjryC-31" vertex="1">
          <mxGeometry x="84" width="84" height="27" as="geometry" />
        </mxCell>
        <mxCell id="0WF7KHpB88fQVX5TjryC-34" value="Machine type&lt;span style=&quot;white-space: pre&quot;&gt;	&lt;/span&gt;" style="shape=partialRectangle;html=1;whiteSpace=wrap;connectable=0;overflow=hidden;fillColor=none;top=0;left=0;bottom=0;right=0;" parent="0WF7KHpB88fQVX5TjryC-31" vertex="1">
          <mxGeometry x="168" width="84" height="27" as="geometry" />
        </mxCell>
        <mxCell id="0WF7KHpB88fQVX5TjryC-35" value="Order no" style="shape=partialRectangle;html=1;whiteSpace=wrap;connectable=0;overflow=hidden;fillColor=none;top=0;left=0;bottom=0;right=0;" parent="0WF7KHpB88fQVX5TjryC-31" vertex="1">
          <mxGeometry x="252" width="84" height="27" as="geometry" />
        </mxCell>
        <mxCell id="0WF7KHpB88fQVX5TjryC-36" value="Qty" style="shape=partialRectangle;html=1;whiteSpace=wrap;connectable=0;overflow=hidden;fillColor=none;top=0;left=0;bottom=0;right=0;" parent="0WF7KHpB88fQVX5TjryC-31" vertex="1">
          <mxGeometry x="336" width="84" height="27" as="geometry" />
        </mxCell>
        <mxCell id="0WF7KHpB88fQVX5TjryC-37" value="" style="shape=partialRectangle;collapsible=0;dropTarget=0;pointerEvents=0;fillColor=none;top=0;left=0;bottom=0;right=0;points=[[0,0.5],[1,0.5]];portConstraint=eastwest;" parent="0WF7KHpB88fQVX5TjryC-30" vertex="1">
          <mxGeometry y="27" width="420" height="26" as="geometry" />
        </mxCell>
        <mxCell id="0WF7KHpB88fQVX5TjryC-38" value="" style="shape=partialRectangle;html=1;whiteSpace=wrap;connectable=0;overflow=hidden;fillColor=none;top=0;left=0;bottom=0;right=0;" parent="0WF7KHpB88fQVX5TjryC-37" vertex="1">
          <mxGeometry width="84" height="26" as="geometry" />
        </mxCell>
        <mxCell id="0WF7KHpB88fQVX5TjryC-39" value="" style="shape=partialRectangle;html=1;whiteSpace=wrap;connectable=0;overflow=hidden;fillColor=#f5f5f5;top=0;left=0;bottom=0;right=0;strokeColor=#666666;fontColor=#333333;" parent="0WF7KHpB88fQVX5TjryC-37" vertex="1">
          <mxGeometry x="84" width="84" height="26" as="geometry" />
        </mxCell>
        <mxCell id="0WF7KHpB88fQVX5TjryC-40" value="" style="shape=partialRectangle;html=1;whiteSpace=wrap;connectable=0;overflow=hidden;fillColor=none;top=0;left=0;bottom=0;right=0;" parent="0WF7KHpB88fQVX5TjryC-37" vertex="1">
          <mxGeometry x="168" width="84" height="26" as="geometry" />
        </mxCell>
        <mxCell id="0WF7KHpB88fQVX5TjryC-41" value="" style="shape=partialRectangle;html=1;whiteSpace=wrap;connectable=0;overflow=hidden;fillColor=#f5f5f5;top=0;left=0;bottom=0;right=0;strokeColor=#666666;fontColor=#333333;" parent="0WF7KHpB88fQVX5TjryC-37" vertex="1">
          <mxGeometry x="252" width="84" height="26" as="geometry" />
        </mxCell>
        <mxCell id="0WF7KHpB88fQVX5TjryC-42" value="" style="shape=partialRectangle;html=1;whiteSpace=wrap;connectable=0;overflow=hidden;fillColor=none;top=0;left=0;bottom=0;right=0;" parent="0WF7KHpB88fQVX5TjryC-37" vertex="1">
          <mxGeometry x="336" width="84" height="26" as="geometry" />
        </mxCell>
        <mxCell id="0WF7KHpB88fQVX5TjryC-43" value="" style="shape=partialRectangle;collapsible=0;dropTarget=0;pointerEvents=0;fillColor=none;top=0;left=0;bottom=0;right=0;points=[[0,0.5],[1,0.5]];portConstraint=eastwest;" parent="0WF7KHpB88fQVX5TjryC-30" vertex="1">
          <mxGeometry y="53" width="420" height="27" as="geometry" />
        </mxCell>
        <mxCell id="0WF7KHpB88fQVX5TjryC-44" value="" style="shape=partialRectangle;html=1;whiteSpace=wrap;connectable=0;overflow=hidden;fillColor=none;top=0;left=0;bottom=0;right=0;" parent="0WF7KHpB88fQVX5TjryC-43" vertex="1">
          <mxGeometry width="84" height="27" as="geometry" />
        </mxCell>
        <mxCell id="0WF7KHpB88fQVX5TjryC-45" value="" style="shape=partialRectangle;html=1;whiteSpace=wrap;connectable=0;overflow=hidden;fillColor=#f5f5f5;top=0;left=0;bottom=0;right=0;strokeColor=#666666;fontColor=#333333;" parent="0WF7KHpB88fQVX5TjryC-43" vertex="1">
          <mxGeometry x="84" width="84" height="27" as="geometry" />
        </mxCell>
        <mxCell id="0WF7KHpB88fQVX5TjryC-46" value="" style="shape=partialRectangle;html=1;whiteSpace=wrap;connectable=0;overflow=hidden;fillColor=none;top=0;left=0;bottom=0;right=0;" parent="0WF7KHpB88fQVX5TjryC-43" vertex="1">
          <mxGeometry x="168" width="84" height="27" as="geometry" />
        </mxCell>
        <mxCell id="0WF7KHpB88fQVX5TjryC-47" value="" style="shape=partialRectangle;html=1;whiteSpace=wrap;connectable=0;overflow=hidden;fillColor=#f5f5f5;top=0;left=0;bottom=0;right=0;strokeColor=#666666;fontColor=#333333;" parent="0WF7KHpB88fQVX5TjryC-43" vertex="1">
          <mxGeometry x="252" width="84" height="27" as="geometry" />
        </mxCell>
        <mxCell id="0WF7KHpB88fQVX5TjryC-48" value="" style="shape=partialRectangle;html=1;whiteSpace=wrap;connectable=0;overflow=hidden;fillColor=none;top=0;left=0;bottom=0;right=0;" parent="0WF7KHpB88fQVX5TjryC-43" vertex="1">
          <mxGeometry x="336" width="84" height="27" as="geometry" />
        </mxCell>
        <mxCell id="MLRE1jqm_rthSnfyheIH-0" style="edgeStyle=orthogonalEdgeStyle;curved=1;rounded=0;orthogonalLoop=1;jettySize=auto;html=1;exitX=1;exitY=0.5;exitDx=0;exitDy=0;entryX=0.333;entryY=1;entryDx=0;entryDy=0;entryPerimeter=0;" parent="cYawIubzxCpS3YJot5zc-1" source="0WF7KHpB88fQVX5TjryC-49" target="0WF7KHpB88fQVX5TjryC-43" edge="1">
          <mxGeometry relative="1" as="geometry">
            <mxPoint x="340" y="260" as="targetPoint" />
          </mxGeometry>
        </mxCell>
        <mxCell id="0WF7KHpB88fQVX5TjryC-49" value="Add" style="rounded=1;fillColor=#0057D8;align=center;strokeColor=none;html=1;fontColor=#ffffff;fontSize=12;startSize=0;" parent="cYawIubzxCpS3YJot5zc-1" vertex="1">
          <mxGeometry x="205" y="310" width="86" height="33" as="geometry" />
        </mxCell>
        <mxCell id="0WF7KHpB88fQVX5TjryC-50" value="" style="html=1;shadow=0;dashed=0;shape=mxgraph.atlassian.checkbox;fillColor=#008465;strokeColor=none;html=1;startSize=0;" parent="cYawIubzxCpS3YJot5zc-1" vertex="1">
          <mxGeometry x="180" y="319" width="14" height="14" as="geometry" />
        </mxCell>
        <mxCell id="0WF7KHpB88fQVX5TjryC-51" value="Delete row" style="rounded=1;fillColor=#0057D8;align=center;strokeColor=none;html=1;fontColor=#ffffff;fontSize=12;startSize=0;" parent="cYawIubzxCpS3YJot5zc-1" vertex="1">
          <mxGeometry x="660" y="183.5" width="86" height="33" as="geometry" />
        </mxCell>
        <mxCell id="1YFsdf88RdWDkgIvMsdL-0" style="edgeStyle=orthogonalEdgeStyle;rounded=0;orthogonalLoop=1;jettySize=auto;html=1;exitX=0;exitY=0.5;exitDx=0;exitDy=0;entryX=0;entryY=0.5;entryDx=0;entryDy=0;fontColor=#000000;startSize=0;" parent="cYawIubzxCpS3YJot5zc-1" source="0WF7KHpB88fQVX5TjryC-52" target="0WF7KHpB88fQVX5TjryC-37" edge="1">
          <mxGeometry relative="1" as="geometry" />
        </mxCell>
        <mxCell id="0WF7KHpB88fQVX5TjryC-52" value="Add row" style="rounded=1;fillColor=#0057D8;align=center;strokeColor=none;html=1;fontColor=#ffffff;fontSize=12;startSize=0;" parent="cYawIubzxCpS3YJot5zc-1" vertex="1">
          <mxGeometry x="200" y="260" width="86" height="33" as="geometry" />
        </mxCell>
        <mxCell id="0WF7KHpB88fQVX5TjryC-55" value="Cancel" style="rounded=1;fillColor=#0057D8;align=center;strokeColor=none;html=1;fontColor=#ffffff;fontSize=12;startSize=0;" parent="cYawIubzxCpS3YJot5zc-1" vertex="1">
          <mxGeometry x="342" y="310" width="86" height="33" as="geometry" />
        </mxCell>
        <mxCell id="EYOmrJ0gWmOxyojRpYqX-0" value="&lt;h1&gt;ORDER ENTRY (AB Order /NFO)&lt;br&gt;&lt;/h1&gt;" style="whiteSpace=wrap;html=1;shadow=0;dashed=0;fontSize=10;align=left;fillColor=#FFFFFF;strokeColor=#FFFFFF;fontColor=#4D4D4D;fontStyle=1" parent="cYawIubzxCpS3YJot5zc-1" vertex="1">
          <mxGeometry x="166" y="20" width="410" height="16.88" as="geometry" />
        </mxCell>
        <mxCell id="MLRE1jqm_rthSnfyheIH-1" value="" style="endArrow=classic;startArrow=classic;html=1;" parent="cYawIubzxCpS3YJot5zc-1" edge="1">
          <mxGeometry width="50" height="50" relative="1" as="geometry">
            <mxPoint x="520" y="170" as="sourcePoint" />
            <mxPoint x="570" y="120" as="targetPoint" />
          </mxGeometry>
        </mxCell>
        <mxCell id="y61I0PJU-pFRHB-YTMpr-0" value="Submit" style="rounded=1;fillColor=#0057D8;align=center;strokeColor=none;html=1;fontColor=#ffffff;fontSize=12" parent="cYawIubzxCpS3YJot5zc-1" vertex="1">
          <mxGeometry x="354.5" y="380" width="86" height="33" as="geometry" />
        </mxCell>
        <mxCell id="y61I0PJU-pFRHB-YTMpr-1" value="" style="html=1;shadow=0;dashed=0;shape=mxgraph.atlassian.checkbox;fillColor=#008465;strokeColor=none;html=1" parent="cYawIubzxCpS3YJot5zc-1" vertex="1">
          <mxGeometry x="329.5" y="389" width="14" height="14" as="geometry" />
        </mxCell>
        <UserObject label="PackingList" link="https://www.draw.io" id="T0Oq4gsArjgyYg4IgcDW-0">
          <mxCell style="text;html=1;strokeColor=none;fillColor=none;whiteSpace=wrap;align=center;verticalAlign=middle;fontColor=#0000EE;fontStyle=4;" vertex="1" parent="cYawIubzxCpS3YJot5zc-1">
            <mxGeometry x="246" y="26" width="60" height="48.88" as="geometry" />
          </mxCell>
        </UserObject>
        <UserObject label="Order Entry" link="https://www.draw.io" id="T0Oq4gsArjgyYg4IgcDW-1">
          <mxCell style="text;html=1;strokeColor=none;fillColor=none;whiteSpace=wrap;align=center;verticalAlign=middle;fontColor=#0000EE;fontStyle=4;" vertex="1" parent="cYawIubzxCpS3YJot5zc-1">
            <mxGeometry x="163" y="26" width="82" height="48.88" as="geometry" />
          </mxCell>
        </UserObject>
        <UserObject label="Packing Info" link="https://www.draw.io" id="T0Oq4gsArjgyYg4IgcDW-2">
          <mxCell style="text;html=1;strokeColor=none;fillColor=none;whiteSpace=wrap;align=center;verticalAlign=middle;fontColor=#0000EE;fontStyle=4;" vertex="1" parent="cYawIubzxCpS3YJot5zc-1">
            <mxGeometry x="315" y="26" width="72" height="48.88" as="geometry" />
          </mxCell>
        </UserObject>
      </root>
    </mxGraphModel>
  </diagram>
  <diagram name="Page-5" id="Fwrxia4us5mDEJsClcIr">
    <mxGraphModel dx="782" dy="420" grid="0" gridSize="10" guides="1" tooltips="1" connect="1" arrows="1" fold="1" page="1" pageScale="1" pageWidth="850" pageHeight="1100" math="0" shadow="0">
      <root>
        <mxCell id="jU5QCNManlW0anT9Mhm3-0" />
        <mxCell id="jU5QCNManlW0anT9Mhm3-1" parent="jU5QCNManlW0anT9Mhm3-0" />
        <mxCell id="jU5QCNManlW0anT9Mhm3-2" value="Export type: &lt;span style=&quot;white-space: pre&quot;&gt;	&lt;/span&gt;" style="text;html=1;align=center;verticalAlign=middle;resizable=0;points=[];autosize=1;strokeColor=none;" parent="jU5QCNManlW0anT9Mhm3-1" vertex="1">
          <mxGeometry x="105" y="120" width="90" height="20" as="geometry" />
        </mxCell>
        <mxCell id="jU5QCNManlW0anT9Mhm3-3" value="&lt;span style=&quot;white-space: pre&quot;&gt;	&lt;/span&gt;&lt;span style=&quot;white-space: pre&quot;&gt;	&lt;/span&gt;Country code:" style="text;html=1;align=center;verticalAlign=middle;resizable=0;points=[];autosize=1;strokeColor=none;" parent="jU5QCNManlW0anT9Mhm3-1" vertex="1">
          <mxGeometry x="50" y="150" width="140" height="20" as="geometry" />
        </mxCell>
        <mxCell id="jU5QCNManlW0anT9Mhm3-4" value="&lt;span style=&quot;white-space: pre&quot;&gt;    &lt;/span&gt;Ship to Code:" style="text;html=1;align=center;verticalAlign=middle;resizable=0;points=[];autosize=1;strokeColor=none;" parent="jU5QCNManlW0anT9Mhm3-1" vertex="1">
          <mxGeometry x="90" y="180" width="100" height="20" as="geometry" />
        </mxCell>
        <mxCell id="jU5QCNManlW0anT9Mhm3-5" value="&amp;nbsp; Order No (O/N):" style="text;html=1;align=center;verticalAlign=middle;resizable=0;points=[];autosize=1;strokeColor=none;" parent="jU5QCNManlW0anT9Mhm3-1" vertex="1">
          <mxGeometry x="95" y="210" width="110" height="20" as="geometry" />
        </mxCell>
        <mxCell id="jU5QCNManlW0anT9Mhm3-6" value="Save" style="rounded=1;fillColor=#0057D8;align=center;strokeColor=none;html=1;fontColor=#ffffff;fontSize=12" parent="jU5QCNManlW0anT9Mhm3-1" vertex="1">
          <mxGeometry x="190" y="290" width="86" height="26" as="geometry" />
        </mxCell>
        <mxCell id="NGfvnNfxePBx9F343CCO-0" style="edgeStyle=orthogonalEdgeStyle;rounded=0;orthogonalLoop=1;jettySize=auto;html=1;exitX=0.75;exitY=0;exitDx=0;exitDy=0;fontColor=#000000;" parent="jU5QCNManlW0anT9Mhm3-1" source="jU5QCNManlW0anT9Mhm3-7" edge="1">
          <mxGeometry relative="1" as="geometry">
            <mxPoint x="380" y="290" as="targetPoint" />
          </mxGeometry>
        </mxCell>
        <mxCell id="jU5QCNManlW0anT9Mhm3-7" value="Cancel" style="rounded=1;fillColor=#0057D8;align=center;strokeColor=none;html=1;fontColor=#ffffff;fontSize=12" parent="jU5QCNManlW0anT9Mhm3-1" vertex="1">
          <mxGeometry x="310" y="290" width="86" height="26" as="geometry" />
        </mxCell>
        <mxCell id="jU5QCNManlW0anT9Mhm3-8" value="" style="rounded=0;whiteSpace=wrap;html=1;" parent="jU5QCNManlW0anT9Mhm3-1" vertex="1">
          <mxGeometry x="220" y="121" width="120" height="20" as="geometry" />
        </mxCell>
        <mxCell id="jU5QCNManlW0anT9Mhm3-9" value="" style="rounded=0;whiteSpace=wrap;html=1;" parent="jU5QCNManlW0anT9Mhm3-1" vertex="1">
          <mxGeometry x="220" y="150" width="120" height="20" as="geometry" />
        </mxCell>
        <mxCell id="jU5QCNManlW0anT9Mhm3-10" value="" style="rounded=0;whiteSpace=wrap;html=1;" parent="jU5QCNManlW0anT9Mhm3-1" vertex="1">
          <mxGeometry x="220" y="180" width="120" height="20" as="geometry" />
        </mxCell>
        <mxCell id="jU5QCNManlW0anT9Mhm3-11" value="" style="rounded=0;whiteSpace=wrap;html=1;" parent="jU5QCNManlW0anT9Mhm3-1" vertex="1">
          <mxGeometry x="220" y="210" width="120" height="20" as="geometry" />
        </mxCell>
        <mxCell id="jU5QCNManlW0anT9Mhm3-12" value="&lt;h1&gt;ORDER ENTRY (DSA/Reutilization)&lt;br&gt;&lt;/h1&gt;" style="whiteSpace=wrap;html=1;shadow=0;dashed=0;fontSize=10;align=left;fillColor=#FFFFFF;strokeColor=#FFFFFF;fontColor=#4D4D4D;fontStyle=1" parent="jU5QCNManlW0anT9Mhm3-1" vertex="1">
          <mxGeometry x="90" y="60" width="410" height="16.88" as="geometry" />
        </mxCell>
        <mxCell id="woon01koAwlS8hV3xTxK-1" value="New or USED:" style="text;html=1;align=center;verticalAlign=middle;resizable=0;points=[];autosize=1;strokeColor=none;fontColor=#000000;" parent="jU5QCNManlW0anT9Mhm3-1" vertex="1">
          <mxGeometry x="107" y="240" width="90" height="20" as="geometry" />
        </mxCell>
        <mxCell id="woon01koAwlS8hV3xTxK-3" value="" style="html=1;shadow=0;dashed=0;shape=mxgraph.bootstrap.radioButton2;labelPosition=right;verticalLabelPosition=middle;align=left;verticalAlign=middle;gradientColor=#DEDEDE;fillColor=#EDEDED;checked=0;spacing=5;checkedFill=#0085FC;checkedStroke=#ffffff;fontColor=#000000;" parent="jU5QCNManlW0anT9Mhm3-1" vertex="1">
          <mxGeometry x="220" y="245" width="10" height="10" as="geometry" />
        </mxCell>
        <mxCell id="woon01koAwlS8hV3xTxK-4" value="" style="html=1;shadow=0;dashed=0;shape=mxgraph.bootstrap.radioButton2;labelPosition=right;verticalLabelPosition=middle;align=left;verticalAlign=middle;gradientColor=#DEDEDE;fillColor=#EDEDED;checked=0;spacing=5;checkedFill=#0085FC;checkedStroke=#ffffff;fontColor=#000000;" parent="jU5QCNManlW0anT9Mhm3-1" vertex="1">
          <mxGeometry x="290" y="245" width="10" height="10" as="geometry" />
        </mxCell>
        <mxCell id="woon01koAwlS8hV3xTxK-5" value="N" style="text;html=1;align=center;verticalAlign=middle;resizable=0;points=[];autosize=1;strokeColor=none;fontColor=#000000;" parent="jU5QCNManlW0anT9Mhm3-1" vertex="1">
          <mxGeometry x="240" y="240" width="20" height="20" as="geometry" />
        </mxCell>
        <mxCell id="woon01koAwlS8hV3xTxK-6" value="U" style="text;html=1;align=center;verticalAlign=middle;resizable=0;points=[];autosize=1;strokeColor=none;fontColor=#000000;" parent="jU5QCNManlW0anT9Mhm3-1" vertex="1">
          <mxGeometry x="320" y="240" width="20" height="20" as="geometry" />
        </mxCell>
        <UserObject label="Order Entry" link="https://www.draw.io" id="DrHE4V78z0hVE_31Q-ny-0">
          <mxCell style="text;html=1;strokeColor=none;fillColor=none;whiteSpace=wrap;align=center;verticalAlign=middle;fontColor=#0000EE;fontStyle=4;" vertex="1" parent="jU5QCNManlW0anT9Mhm3-1">
            <mxGeometry x="83" y="69" width="82" height="48.88" as="geometry" />
          </mxCell>
        </UserObject>
        <UserObject label="PackingList" link="https://www.draw.io" id="gnG-j9uKYPhi9RsNMof3-0">
          <mxCell style="text;html=1;strokeColor=none;fillColor=none;whiteSpace=wrap;align=center;verticalAlign=middle;fontColor=#0000EE;fontStyle=4;" vertex="1" parent="jU5QCNManlW0anT9Mhm3-1">
            <mxGeometry x="170" y="69" width="60" height="48.88" as="geometry" />
          </mxCell>
        </UserObject>
        <UserObject label="Packing Info" link="https://www.draw.io" id="WW6XUpadHrUR5FeX66kH-0">
          <mxCell style="text;html=1;strokeColor=none;fillColor=none;whiteSpace=wrap;align=center;verticalAlign=middle;fontColor=#0000EE;fontStyle=4;" vertex="1" parent="jU5QCNManlW0anT9Mhm3-1">
            <mxGeometry x="238" y="69" width="72" height="48.88" as="geometry" />
          </mxCell>
        </UserObject>
      </root>
    </mxGraphModel>
  </diagram>
  <diagram name="Page-6" id="F2QSokp_-1jT0pN2Xuo4">
    <mxGraphModel dx="782" dy="420" grid="0" gridSize="10" guides="1" tooltips="1" connect="1" arrows="1" fold="1" page="1" pageScale="1" pageWidth="850" pageHeight="1100" math="0" shadow="0">
      <root>
        <mxCell id="HJMSmZo5_X4zU205aROw-0" />
        <mxCell id="HJMSmZo5_X4zU205aROw-1" parent="HJMSmZo5_X4zU205aROw-0" />
        <mxCell id="snNvkmWJ3hG7lmLGzJri-1" value="&lt;h1&gt;ORDER ENTRY (DSA/Reutilization)&lt;br&gt;&lt;/h1&gt;" style="whiteSpace=wrap;html=1;shadow=0;dashed=0;fontSize=10;align=left;fillColor=#FFFFFF;strokeColor=#FFFFFF;fontColor=#4D4D4D;fontStyle=1" parent="HJMSmZo5_X4zU205aROw-1" vertex="1">
          <mxGeometry x="90" y="60" width="410" height="16.88" as="geometry" />
        </mxCell>
        <mxCell id="EQtTJyezLFds_c9WDQEf-0" value="" style="shape=table;startSize=0;container=1;collapsible=0;childLayout=tableLayout;" parent="HJMSmZo5_X4zU205aROw-1" vertex="1">
          <mxGeometry x="90" y="144" width="570" height="50" as="geometry" />
        </mxCell>
        <mxCell id="EQtTJyezLFds_c9WDQEf-1" value="" style="shape=partialRectangle;collapsible=0;dropTarget=0;pointerEvents=0;fillColor=none;top=0;left=0;bottom=0;right=0;points=[[0,0.5],[1,0.5]];portConstraint=eastwest;" parent="EQtTJyezLFds_c9WDQEf-0" vertex="1">
          <mxGeometry width="570" height="25" as="geometry" />
        </mxCell>
        <mxCell id="EQtTJyezLFds_c9WDQEf-2" value="Export type" style="shape=partialRectangle;html=1;whiteSpace=wrap;connectable=0;overflow=hidden;fillColor=none;top=0;left=0;bottom=0;right=0;" parent="EQtTJyezLFds_c9WDQEf-1" vertex="1">
          <mxGeometry width="81" height="25" as="geometry" />
        </mxCell>
        <mxCell id="EQtTJyezLFds_c9WDQEf-3" value="Country code" style="shape=partialRectangle;html=1;whiteSpace=wrap;connectable=0;overflow=hidden;fillColor=none;top=0;left=0;bottom=0;right=0;" parent="EQtTJyezLFds_c9WDQEf-1" vertex="1">
          <mxGeometry x="81" width="82" height="25" as="geometry" />
        </mxCell>
        <mxCell id="EQtTJyezLFds_c9WDQEf-4" value="Cuntry" style="shape=partialRectangle;html=1;whiteSpace=wrap;connectable=0;overflow=hidden;fillColor=none;top=0;left=0;bottom=0;right=0;" parent="EQtTJyezLFds_c9WDQEf-1" vertex="1">
          <mxGeometry x="163" width="81" height="25" as="geometry" />
        </mxCell>
        <mxCell id="EQtTJyezLFds_c9WDQEf-5" value="Ship to Loc" style="shape=partialRectangle;html=1;whiteSpace=wrap;connectable=0;overflow=hidden;fillColor=none;top=0;left=0;bottom=0;right=0;" parent="EQtTJyezLFds_c9WDQEf-1" vertex="1">
          <mxGeometry x="244" width="82" height="25" as="geometry" />
        </mxCell>
        <mxCell id="EQtTJyezLFds_c9WDQEf-6" value="Order no&lt;span style=&quot;white-space: pre&quot;&gt;	&lt;/span&gt;" style="shape=partialRectangle;html=1;whiteSpace=wrap;connectable=0;overflow=hidden;fillColor=none;top=0;left=0;bottom=0;right=0;" parent="EQtTJyezLFds_c9WDQEf-1" vertex="1">
          <mxGeometry x="326" width="81" height="25" as="geometry" />
        </mxCell>
        <mxCell id="EQtTJyezLFds_c9WDQEf-7" value="New or USED" style="shape=partialRectangle;html=1;whiteSpace=wrap;connectable=0;overflow=hidden;fillColor=none;top=0;left=0;bottom=0;right=0;" parent="EQtTJyezLFds_c9WDQEf-1" vertex="1">
          <mxGeometry x="407" width="82" height="25" as="geometry" />
        </mxCell>
        <mxCell id="EQtTJyezLFds_c9WDQEf-8" value="Case NI" style="shape=partialRectangle;html=1;whiteSpace=wrap;connectable=0;overflow=hidden;fillColor=none;top=0;left=0;bottom=0;right=0;" parent="EQtTJyezLFds_c9WDQEf-1" vertex="1">
          <mxGeometry x="489" width="81" height="25" as="geometry" />
        </mxCell>
        <mxCell id="EQtTJyezLFds_c9WDQEf-9" value="" style="shape=partialRectangle;collapsible=0;dropTarget=0;pointerEvents=0;fillColor=#f5f5f5;top=0;left=0;bottom=0;right=0;points=[[0,0.5],[1,0.5]];portConstraint=eastwest;strokeColor=#666666;fontColor=#333333;" parent="EQtTJyezLFds_c9WDQEf-0" vertex="1">
          <mxGeometry y="25" width="570" height="25" as="geometry" />
        </mxCell>
        <mxCell id="EQtTJyezLFds_c9WDQEf-10" value="" style="shape=partialRectangle;html=1;whiteSpace=wrap;connectable=0;overflow=hidden;fillColor=none;top=0;left=0;bottom=0;right=0;" parent="EQtTJyezLFds_c9WDQEf-9" vertex="1">
          <mxGeometry width="81" height="25" as="geometry" />
        </mxCell>
        <mxCell id="EQtTJyezLFds_c9WDQEf-11" value="" style="shape=partialRectangle;html=1;whiteSpace=wrap;connectable=0;overflow=hidden;fillColor=none;top=0;left=0;bottom=0;right=0;" parent="EQtTJyezLFds_c9WDQEf-9" vertex="1">
          <mxGeometry x="81" width="82" height="25" as="geometry" />
        </mxCell>
        <mxCell id="EQtTJyezLFds_c9WDQEf-12" value="" style="shape=partialRectangle;html=1;whiteSpace=wrap;connectable=0;overflow=hidden;fillColor=none;top=0;left=0;bottom=0;right=0;" parent="EQtTJyezLFds_c9WDQEf-9" vertex="1">
          <mxGeometry x="163" width="81" height="25" as="geometry" />
        </mxCell>
        <mxCell id="EQtTJyezLFds_c9WDQEf-13" value="" style="shape=partialRectangle;html=1;whiteSpace=wrap;connectable=0;overflow=hidden;fillColor=none;top=0;left=0;bottom=0;right=0;" parent="EQtTJyezLFds_c9WDQEf-9" vertex="1">
          <mxGeometry x="244" width="82" height="25" as="geometry" />
        </mxCell>
        <mxCell id="EQtTJyezLFds_c9WDQEf-14" value="" style="shape=partialRectangle;html=1;whiteSpace=wrap;connectable=0;overflow=hidden;fillColor=none;top=0;left=0;bottom=0;right=0;" parent="EQtTJyezLFds_c9WDQEf-9" vertex="1">
          <mxGeometry x="326" width="81" height="25" as="geometry" />
        </mxCell>
        <mxCell id="EQtTJyezLFds_c9WDQEf-15" value="" style="shape=partialRectangle;html=1;whiteSpace=wrap;connectable=0;overflow=hidden;fillColor=none;top=0;left=0;bottom=0;right=0;" parent="EQtTJyezLFds_c9WDQEf-9" vertex="1">
          <mxGeometry x="407" width="82" height="25" as="geometry" />
        </mxCell>
        <mxCell id="EQtTJyezLFds_c9WDQEf-16" value="" style="shape=partialRectangle;html=1;whiteSpace=wrap;connectable=0;overflow=hidden;fillColor=none;top=0;left=0;bottom=0;right=0;" parent="EQtTJyezLFds_c9WDQEf-9" vertex="1">
          <mxGeometry x="489" width="81" height="25" as="geometry" />
        </mxCell>
        <mxCell id="EQtTJyezLFds_c9WDQEf-17" value="" style="shape=table;startSize=0;container=1;collapsible=0;childLayout=tableLayout;" parent="HJMSmZo5_X4zU205aROw-1" vertex="1">
          <mxGeometry x="90" y="225" width="490" height="45" as="geometry" />
        </mxCell>
        <mxCell id="EQtTJyezLFds_c9WDQEf-18" value="" style="shape=partialRectangle;collapsible=0;dropTarget=0;pointerEvents=0;fillColor=none;top=0;left=0;bottom=0;right=0;points=[[0,0.5],[1,0.5]];portConstraint=eastwest;" parent="EQtTJyezLFds_c9WDQEf-17" vertex="1">
          <mxGeometry width="490" height="23" as="geometry" />
        </mxCell>
        <mxCell id="EQtTJyezLFds_c9WDQEf-19" value="Part no&lt;span style=&quot;white-space: pre&quot;&gt;	&lt;/span&gt;" style="shape=partialRectangle;html=1;whiteSpace=wrap;connectable=0;overflow=hidden;fillColor=none;top=0;left=0;bottom=0;right=0;" parent="EQtTJyezLFds_c9WDQEf-18" vertex="1">
          <mxGeometry width="82" height="23" as="geometry" />
        </mxCell>
        <mxCell id="EQtTJyezLFds_c9WDQEf-20" value="Part Name" style="shape=partialRectangle;html=1;whiteSpace=wrap;connectable=0;overflow=hidden;fillColor=none;top=0;left=0;bottom=0;right=0;" parent="EQtTJyezLFds_c9WDQEf-18" vertex="1">
          <mxGeometry x="82" width="81" height="23" as="geometry" />
        </mxCell>
        <mxCell id="EQtTJyezLFds_c9WDQEf-21" value="Suffix&lt;span style=&quot;white-space: pre&quot;&gt;	&lt;/span&gt;" style="shape=partialRectangle;html=1;whiteSpace=wrap;connectable=0;overflow=hidden;fillColor=none;top=0;left=0;bottom=0;right=0;" parent="EQtTJyezLFds_c9WDQEf-18" vertex="1">
          <mxGeometry x="163" width="82" height="23" as="geometry" />
        </mxCell>
        <mxCell id="EQtTJyezLFds_c9WDQEf-22" value="Order no&lt;span style=&quot;white-space: pre&quot;&gt;	&lt;/span&gt;" style="shape=partialRectangle;html=1;whiteSpace=wrap;connectable=0;overflow=hidden;fillColor=none;top=0;left=0;bottom=0;right=0;" parent="EQtTJyezLFds_c9WDQEf-18" vertex="1">
          <mxGeometry x="245" width="82" height="23" as="geometry" />
        </mxCell>
        <mxCell id="EQtTJyezLFds_c9WDQEf-23" value="CLID" style="shape=partialRectangle;html=1;whiteSpace=wrap;connectable=0;overflow=hidden;fillColor=none;top=0;left=0;bottom=0;right=0;" parent="EQtTJyezLFds_c9WDQEf-18" vertex="1">
          <mxGeometry x="327" width="81" height="23" as="geometry" />
        </mxCell>
        <mxCell id="EQtTJyezLFds_c9WDQEf-24" value="QTY" style="shape=partialRectangle;html=1;whiteSpace=wrap;connectable=0;overflow=hidden;fillColor=none;top=0;left=0;bottom=0;right=0;" parent="EQtTJyezLFds_c9WDQEf-18" vertex="1">
          <mxGeometry x="408" width="82" height="23" as="geometry" />
        </mxCell>
        <mxCell id="EQtTJyezLFds_c9WDQEf-25" value="" style="shape=partialRectangle;collapsible=0;dropTarget=0;pointerEvents=0;fillColor=none;top=0;left=0;bottom=0;right=0;points=[[0,0.5],[1,0.5]];portConstraint=eastwest;" parent="EQtTJyezLFds_c9WDQEf-17" vertex="1">
          <mxGeometry y="23" width="490" height="22" as="geometry" />
        </mxCell>
        <mxCell id="EQtTJyezLFds_c9WDQEf-26" value="" style="shape=partialRectangle;html=1;whiteSpace=wrap;connectable=0;overflow=hidden;fillColor=none;top=0;left=0;bottom=0;right=0;" parent="EQtTJyezLFds_c9WDQEf-25" vertex="1">
          <mxGeometry width="82" height="22" as="geometry" />
        </mxCell>
        <mxCell id="EQtTJyezLFds_c9WDQEf-27" value="" style="shape=partialRectangle;html=1;whiteSpace=wrap;connectable=0;overflow=hidden;fillColor=#f5f5f5;top=0;left=0;bottom=0;right=0;strokeColor=#666666;fontColor=#333333;" parent="EQtTJyezLFds_c9WDQEf-25" vertex="1">
          <mxGeometry x="82" width="81" height="22" as="geometry" />
        </mxCell>
        <mxCell id="EQtTJyezLFds_c9WDQEf-28" value="" style="shape=partialRectangle;html=1;whiteSpace=wrap;connectable=0;overflow=hidden;fillColor=none;top=0;left=0;bottom=0;right=0;" parent="EQtTJyezLFds_c9WDQEf-25" vertex="1">
          <mxGeometry x="163" width="82" height="22" as="geometry" />
        </mxCell>
        <mxCell id="EQtTJyezLFds_c9WDQEf-29" value="" style="shape=partialRectangle;html=1;whiteSpace=wrap;connectable=0;overflow=hidden;fillColor=#f5f5f5;top=0;left=0;bottom=0;right=0;strokeColor=#666666;fontColor=#333333;" parent="EQtTJyezLFds_c9WDQEf-25" vertex="1">
          <mxGeometry x="245" width="82" height="22" as="geometry" />
        </mxCell>
        <mxCell id="EQtTJyezLFds_c9WDQEf-30" value="" style="shape=partialRectangle;html=1;whiteSpace=wrap;connectable=0;overflow=hidden;fillColor=none;top=0;left=0;bottom=0;right=0;" parent="EQtTJyezLFds_c9WDQEf-25" vertex="1">
          <mxGeometry x="327" width="81" height="22" as="geometry" />
        </mxCell>
        <mxCell id="EQtTJyezLFds_c9WDQEf-31" value="" style="shape=partialRectangle;html=1;whiteSpace=wrap;connectable=0;overflow=hidden;fillColor=none;top=0;left=0;bottom=0;right=0;" parent="EQtTJyezLFds_c9WDQEf-25" vertex="1">
          <mxGeometry x="408" width="82" height="22" as="geometry" />
        </mxCell>
        <mxCell id="OKuGq6NKmMjqaje5xxR_-0" style="edgeStyle=orthogonalEdgeStyle;curved=1;rounded=0;orthogonalLoop=1;jettySize=auto;html=1;exitX=1;exitY=0.25;exitDx=0;exitDy=0;entryX=0.25;entryY=1;entryDx=0;entryDy=0;" parent="HJMSmZo5_X4zU205aROw-1" source="EQtTJyezLFds_c9WDQEf-35" target="EQtTJyezLFds_c9WDQEf-17" edge="1">
          <mxGeometry relative="1" as="geometry" />
        </mxCell>
        <mxCell id="OKuGq6NKmMjqaje5xxR_-1" style="edgeStyle=orthogonalEdgeStyle;curved=1;rounded=0;orthogonalLoop=1;jettySize=auto;html=1;exitX=0;exitY=0.5;exitDx=0;exitDy=0;entryX=0;entryY=0.5;entryDx=0;entryDy=0;" parent="HJMSmZo5_X4zU205aROw-1" source="EQtTJyezLFds_c9WDQEf-32" target="EQtTJyezLFds_c9WDQEf-25" edge="1">
          <mxGeometry relative="1" as="geometry">
            <mxPoint x="70" y="260" as="targetPoint" />
          </mxGeometry>
        </mxCell>
        <mxCell id="EQtTJyezLFds_c9WDQEf-32" value="Add Row" style="rounded=1;fillColor=#0057D8;align=center;strokeColor=none;html=1;fontColor=#ffffff;fontSize=12;startSize=0;" parent="HJMSmZo5_X4zU205aROw-1" vertex="1">
          <mxGeometry x="99.5" y="300" width="100.5" height="30" as="geometry" />
        </mxCell>
        <mxCell id="EQtTJyezLFds_c9WDQEf-33" value="" style="html=1;shadow=0;dashed=0;shape=mxgraph.atlassian.checkbox;fillColor=#008465;strokeColor=none;html=1;startSize=0;" parent="HJMSmZo5_X4zU205aROw-1" vertex="1">
          <mxGeometry x="74.5" y="309" width="14" height="14" as="geometry" />
        </mxCell>
        <mxCell id="EQtTJyezLFds_c9WDQEf-34" value="cancel" style="rounded=1;fillColor=#0057D8;align=center;strokeColor=none;html=1;fontColor=#ffffff;fontSize=12;startSize=0;" parent="HJMSmZo5_X4zU205aROw-1" vertex="1">
          <mxGeometry x="230" y="340" width="100.5" height="30" as="geometry" />
        </mxCell>
        <mxCell id="EQtTJyezLFds_c9WDQEf-35" value="Add" style="rounded=1;fillColor=#0057D8;align=center;strokeColor=none;html=1;fontColor=#ffffff;fontSize=12;startSize=0;" parent="HJMSmZo5_X4zU205aROw-1" vertex="1">
          <mxGeometry x="99.5" y="340" width="100.5" height="30" as="geometry" />
        </mxCell>
        <mxCell id="EQtTJyezLFds_c9WDQEf-36" value="Delete row" style="rounded=1;fillColor=#0057D8;align=center;strokeColor=none;html=1;fontColor=#ffffff;fontSize=12;startSize=0;" parent="HJMSmZo5_X4zU205aROw-1" vertex="1">
          <mxGeometry x="600" y="232.5" width="100.5" height="30" as="geometry" />
        </mxCell>
        <mxCell id="OKuGq6NKmMjqaje5xxR_-2" value="" style="endArrow=classic;startArrow=classic;html=1;" parent="HJMSmZo5_X4zU205aROw-1" edge="1">
          <mxGeometry width="50" height="50" relative="1" as="geometry">
            <mxPoint x="390" y="230" as="sourcePoint" />
            <mxPoint x="450" y="200" as="targetPoint" />
            <Array as="points">
              <mxPoint x="430" y="210" />
            </Array>
          </mxGeometry>
        </mxCell>
        <mxCell id="ILeYBUCBKgcbj724pQwK-0" value="Submit" style="rounded=1;fillColor=#0057D8;align=center;strokeColor=none;html=1;fontColor=#ffffff;fontSize=12" parent="HJMSmZo5_X4zU205aROw-1" vertex="1">
          <mxGeometry x="339" y="430" width="86" height="33" as="geometry" />
        </mxCell>
        <UserObject label="Order Entry" link="https://www.draw.io" id="tUZepC9b_ob6mDglpXUv-0">
          <mxCell style="text;html=1;strokeColor=none;fillColor=none;whiteSpace=wrap;align=center;verticalAlign=middle;fontColor=#0000EE;fontStyle=4;" vertex="1" parent="HJMSmZo5_X4zU205aROw-1">
            <mxGeometry x="86" y="68" width="82" height="48.88" as="geometry" />
          </mxCell>
        </UserObject>
        <UserObject label="PackingList" link="https://www.draw.io" id="LYTDqowlhEBuGpPUx3Vj-0">
          <mxCell style="text;html=1;strokeColor=none;fillColor=none;whiteSpace=wrap;align=center;verticalAlign=middle;fontColor=#0000EE;fontStyle=4;" vertex="1" parent="HJMSmZo5_X4zU205aROw-1">
            <mxGeometry x="170" y="68" width="60" height="48.88" as="geometry" />
          </mxCell>
        </UserObject>
        <UserObject label="Packing Info" link="https://www.draw.io" id="GLAl6xXh2P06d9MqOj5R-0">
          <mxCell style="text;html=1;strokeColor=none;fillColor=none;whiteSpace=wrap;align=center;verticalAlign=middle;fontColor=#0000EE;fontStyle=4;" vertex="1" parent="HJMSmZo5_X4zU205aROw-1">
            <mxGeometry x="235" y="68" width="72" height="48.88" as="geometry" />
          </mxCell>
        </UserObject>
      </root>
    </mxGraphModel>
  </diagram>
</mxfile>
